#!OML:ASF E:/inclinewalkrobotboard/Project1/Captureday1/Session1/subject1.ASF
:FULLY-SPECIFIED
:DEGREES
113
root 0 0 0 0.43063114393566915 -3.473150887188446 0.5291068465133728
lowerback 11.587431075659394 0.88240213867895 0.4696868485651636
upperback -3.19249318747926 1.215369034626095 -0.04775253134281465
thorax -9.935805634927405 0.5583357459839219 -0.550963778187142
lowerneck -8.845612324372226 0.44936178853199094 2.9638113927565386
upperneck 18.664727373639817 1.4001435218293357 -5.987930968336787
head 7.317990962798359 0.3974077445685015 -2.372121531889889
rclavicle -4.308122313130915E-16 -8.900107288861963E-16
rhumerus 5.934703889860922 5.132115091448073 -56.54164430072683
rradius 59.20025208301789
rwrist 20.351338247180934
rhand -29.426778926317166 -33.70903355049861
rfingers 7.1250199999999975
rthumb -2.762486096928968 -63.565253988345646
lclavicle -3.601508780933904E-16 -8.339497082860177E-16
lhumerus 5.668223472197845 -8.591882103500424 55.64811287367275
lradius 57.89402985935165
lwrist -14.663553210678375
lhand -39.58820862245785 -43.402137818759265
lfingers 7.1250199999999975
lthumb -12.584380969638541 -13.954711939905199
rfemur -20.043910767977682 0.46246028066391176 20.593820150913096
rtibia 48.72019204122804
rfoot -20.40681747415877 -12.711221621533653
rtoes -9.851387605695233
lfemur -21.160963936006333 1.0578613528198089 -18.285292456849657
ltibia 47.662453194867275
lfoot -22.97729814790985 -3.5223222670484318
ltoes -14.813805478440013
114
root 0 0 0 1.1259717632351451 -3.6701437318733614 1.2490112731206204
lowerback 11.854109231849838 0.9792609766827083 0.31511691647965273
upperback -4.070842875384068 1.2984442456701561 -0.44746552603328216
thorax -11.061327280524184 0.5935194794538452 -0.9228728318065641
lowerneck -6.952974559565172 1.259266871093082 4.130770271138712
upperneck 18.51893159638022 2.595809016906641 -7.553836217686627
head 6.950809280978416 0.9204390748091257 -2.9464475130369436
rclavicle -3.097579040868672E-16 -9.68312552005591E-16
rhumerus 16.613263582975073 12.22888475126801 -49.99144970656738
rradius 69.09958670665094
rwrist 25.301650288325334
rhand -32.98723486710183 -50.80076808139314
rfingers 7.1250199999999975
rthumb -6.202542577455413 -80.64334562374088
lclavicle -2.6300327092884475E-16 -9.283601123874752E-16
lhumerus 15.7806375655919 -11.067152154021523 48.541970907162906
lradius 65.82024583479338
lwrist -19.956597005764486
lhand -42.97753742472627 -61.01321430996372
lfingers 7.125019999999997
lthumb -15.842130597206639 -31.759700573845908
rfemur -21.49959837199652 -0.23854126319439484 19.56763752294176
rtibia 50.35547600035566
rfoot -22.196286956397522 -13.680299914369623
rtoes -11.885307586050047
lfemur -21.561665404015248 1.1634087336964123 -18.197520008014802
ltibia 48.28804225647473
lfoot -23.371447621364993 -3.5870495255655097
ltoes -15.156140042100002
115
root 0 0 0 1.3138527940050708 -3.719148337729471 1.4519160659761774
lowerback 11.925455762171199 1.0025627713228202 0.2621446964860274
upperback -4.3067224166629074 1.3138938324712026 -0.5557645706323094
thorax -11.366923568898 0.6009353514194129 -1.0169458656073407
lowerneck -6.441114648535953 1.4796973813767071 4.450118930074955
upperneck 18.479981561333865 2.9185120721638538 -7.977483498065249
head 6.851966043797562 1.0616241616908524 -3.1002024341769374
rclavicle -2.513432204643768E-16 -9.796420794594854E-16
rhumerus 19.75857280411556 14.31668058734027 -48.05791790520766
rradius 72.01847984699114
rwrist 26.75462147843261
rhand -34.036075381278096 -55.82877480877313
rfingers 7.125019999999998
rthumb -7.218400218945343 -85.65383700567936
lclavicle -2.1687603891287651E-16 -9.476663997327557E-16
lhumerus 19.255189589808065 -11.922362312124143 46.10393617585369
lradius 68.5513540405976
lwrist -21.781131228883034
lhand -44.14513784193978 -67.05936462624666
lfingers 7.1250199999999975
lthumb -16.96060781507582 -37.84013244628716
rfemur -23.447566053464385 -1.152506040302291 18.202272255238356
rtibia 52.439224302054804
rfoot -24.617507587072346 -14.995894749595475
rtoes -14.626500873687299
lfemur -21.783264976645366 1.215500600287921 -18.16335095085913
ltibia 48.57310481636378
lfoot -23.629880217000746 -3.5923341168747753
ltoes -15.339743747364086
116
root 0 0 0 1.4022739095540069 -3.712843693854452 1.5917790775125569
lowerback 11.958019024171882 0.9961433769917536 0.191201756447189
upperback -4.414718386874297 1.292196421043129 -0.6076533677276165
thorax -11.510035013961417 0.591620942110895 -1.0321224126325017
lowerneck -6.195699692904218 1.5883208056952818 4.598257633110321
upperneck 18.460905519507037 3.0759011788102524 -8.180900463461327
head 6.804219641814072 1.1297303152393106 -3.171316850863547
rclavicle -2.0410260510919351E-16 -9.7568566237829E-16
rhumerus 21.435386092525953 15.427711963760009 -47.02948782316972
rradius 73.57628929396768
rwrist 27.52669788016962
rhand -34.59349001123415 -58.5010703037382
rfingers 7.125019999999999
rthumb -7.760014266949208 -88.31659227364483
lclavicle -1.9091591198795408E-16 -9.51707395782916E-16
lhumerus 21.292728233162887 -12.424560216352214 44.67827399920846
lradius 70.14765783088497
lwrist -22.850358627283235
lhand -44.83109104543807 -70.59665476432323
lfingers 7.125019999999998
lthumb -17.614098203983737 -41.38774606728764
rfemur -24.737039395756458 -1.7563941336825426 17.295330118431682
rtibia 53.80909691895176
rfoot -26.234587448951523 -15.874154526680261
rtoes -16.451429363181845
lfemur -21.812322518044468 1.2236671380865358 -18.16765454552928
ltibia 48.60624255735898
lfoot -23.692098768067666 -3.587636113711009
ltoes -15.375224272853359
